<svg width="13" height="12" viewBox="0 0 13 12" fill="none" xmlns="http://www.w3.org/2000/svg">
<path d="M12.9661 4.60348C12.881 4.36049 12.6475 4.18791 12.3713 4.16493L8.61915 3.85043L7.13544 0.644816C7.02604 0.409886 6.77689 0.257812 6.50007 0.257812C6.22324 0.257812 5.97409 0.409886 5.86469 0.645365L4.38099 3.85043L0.628234 4.16493C0.352501 4.18846 0.119615 4.36049 0.0340187 4.60348C-0.0515777 4.84646 0.0274725 5.11298 0.236058 5.28098L3.07224 7.577L2.23592 10.9776C2.17472 11.2277 2.27986 11.4861 2.50461 11.6361C2.62542 11.7167 2.76675 11.7577 2.90928 11.7577C3.03217 11.7577 3.15407 11.7271 3.26347 11.6667L6.50007 9.88108L9.73547 11.6667C9.97222 11.7982 10.2707 11.7862 10.4949 11.6361C10.7198 11.4857 10.8248 11.2271 10.7636 10.9776L9.92729 7.577L12.7635 5.28144C12.9721 5.11298 13.0517 4.84692 12.9661 4.60348Z" fill="#B0D89D"/>
</svg>
