<svg width="33" height="48" viewBox="0 0 33 48" fill="none" xmlns="http://www.w3.org/2000/svg">
<path d="M0 0H33V47.5L16.5 37L0 47.5V0Z" fill="#C6A47E"/>
<g clip-path="url(#clip0)">
<path d="M23.9635 17.2543C23.8719 16.9506 23.6204 16.7349 23.3229 16.7062L19.2822 16.313L17.6843 12.306C17.5665 12.0124 17.2982 11.8223 17.0001 11.8223C16.702 11.8223 16.4336 12.0124 16.3158 12.3067L14.718 16.313L10.6766 16.7062C10.3796 16.7356 10.1288 16.9506 10.0366 17.2543C9.94445 17.5581 10.0296 17.8912 10.2542 18.1012L13.3086 20.9713L12.4079 25.222C12.342 25.5346 12.4552 25.8577 12.6973 26.0451C12.8274 26.1458 12.9796 26.1971 13.1331 26.1971C13.2654 26.1971 13.3967 26.1589 13.5145 26.0833L17.0001 23.8513L20.4844 26.0833C20.7393 26.2477 21.0607 26.2327 21.3022 26.0451C21.5444 25.8571 21.6575 25.5339 21.5916 25.222L20.6909 20.9713L23.7453 18.1018C23.9699 17.8912 24.0557 17.5587 23.9635 17.2543Z" fill="white"/>
</g>
<defs>
<clipPath id="clip0">
<rect width="14" height="15" fill="white" transform="translate(10 11.5)"/>
</clipPath>
</defs>
</svg>
